<svg width="59" height="74" viewBox="0 0 59 74" fill="none" xmlns="http://www.w3.org/2000/svg">
<rect x="6.69172" width="45.9787" height="45.7768" rx="5" fill="#97BF04"/>
<path d="M13.4058 38.3766C12.248 36.3799 13.6982 33.8791 16.0139 33.8791L43.0033 33.8791C45.3152 33.8791 46.7563 36.3725 45.5985 38.3692L32.1038 61.6401C30.9459 63.6368 28.0565 63.6409 26.9005 61.6475L13.4058 38.3766Z" fill="#97BF04"/>
<path d="M29.6811 9.88611L44.0359 15.6888H15.3262L29.6811 9.88611Z" fill="#F7FFD9"/>
<rect x="15.3262" y="15.6888" width="28.7097" height="1.28949" fill="#D5FFA0"/>
<rect x="18.9959" y="25.7898" width="20.5069" height="10.101" fill="#D5FFA0"/>
<rect x="17.7007" y="25.7898" width="23.7448" height="0.644745" fill="#D5FFA0"/>
<rect x="21.1545" y="16.9783" width="0.647587" height="7.52202" fill="#F7FFD9"/>
<rect x="37.1283" y="16.9783" width="0.647587" height="7.52202" fill="#F7FFD9"/>
<path d="M21.1545 24.5003H37.7759L41.4456 25.7898H17.7007L21.1545 24.5003Z" fill="#F7FFD9"/>
</svg>
